<svg xmlns="http://www.w3.org/2000/svg" xmlns:xlink="http://www.w3.org/1999/xlink" xmlns:lucid="lucid" width="2421" height="1086.5"><g transform="translate(620.5 1269)" lucid:page-tab-id="0_0"><path d="M-480-1202.5a6 6 0 0 1 6-6h368a6 6 0 0 1 6 6v325a6 6 0 0 1-6 6h-368a6 6 0 0 1-6-6z" stroke="#000" fill="#fff"/><path d="M-480-1165.83h380m-380 177.75h380" stroke="#000" fill="none"/><use xlink:href="#a" transform="matrix(1,0,0,1,-472,-1200.5) translate(160.42592592592592 17.944444444444443)"/><use xlink:href="#b" transform="matrix(1,0,0,1,-468,-1157.8333333333333) translate(0 58.57510747354497)"/><use xlink:href="#c" transform="matrix(1,0,0,1,-468,-1157.8333333333333) translate(180.29600694444446 58.57510747354497)"/><use xlink:href="#d" transform="matrix(1,0,0,1,-468,-1157.8333333333333) translate(0 89.00086805555556)"/><use xlink:href="#e" transform="matrix(1,0,0,1,-468,-1157.8333333333333) translate(69.34461805555556 89.00086805555556)"/><use xlink:href="#f" transform="matrix(1,0,0,1,-468,-1157.8333333333333) translate(0 119.42662863756614)"/><use xlink:href="#g" transform="matrix(1,0,0,1,-468,-1157.8333333333333) translate(97.08246527777779 119.42662863756614)"/><path d="M60-1242.5a6 6 0 0 1 6-6h528a6 6 0 0 1 6 6v405a6 6 0 0 1-6 6H66a6 6 0 0 1-6-6z" stroke="#000" fill="#fff"/><path d="M60-1205.83h540m-540 177.2h540" stroke="#000" fill="none"/><use xlink:href="#h" transform="matrix(1,0,0,1,68,-1240.5) translate(233.66666666666669 17.944444444444443)"/><use xlink:href="#i" transform="matrix(1,0,0,1,72,-1197.8333333333333) translate(0 55.16365947420634)"/><use xlink:href="#j" transform="matrix(1,0,0,1,72,-1197.8333333333333) translate(288.8470052083333 55.16365947420634)"/><use xlink:href="#k" transform="matrix(1,0,0,1,72,-1197.8333333333333) translate(0 88.51497395833333)"/><use xlink:href="#l" transform="matrix(1,0,0,1,72,-1197.8333333333333) translate(197.63216145833334 88.51497395833333)"/><use xlink:href="#m" transform="matrix(1,0,0,1,72,-1197.8333333333333) translate(0 119.68464781746032)"/><use xlink:href="#n" transform="matrix(1,0,0,1,72,-1020.6307043650793) translate(0 52.8622271825397)"/><use xlink:href="#o" transform="matrix(1,0,0,1,72,-1020.6307043650793) translate(69.34461805555554 52.8622271825397)"/><use xlink:href="#p" transform="matrix(1,0,0,1,72,-1020.6307043650793) translate(263.5095486111111 52.8622271825397)"/><use xlink:href="#q" transform="matrix(1,0,0,1,72,-1020.6307043650793) translate(346.7230902777777 52.8622271825397)"/><use xlink:href="#r" transform="matrix(1,0,0,1,72,-1020.6307043650793) translate(0 83.28798776455028)"/><use xlink:href="#s" transform="matrix(1,0,0,1,72,-1020.6307043650793) translate(83.21354166666666 83.28798776455028)"/><use xlink:href="#t" transform="matrix(1,0,0,1,72,-1020.6307043650793) translate(263.5095486111111 83.28798776455028)"/><use xlink:href="#n" transform="matrix(1,0,0,1,72,-1020.6307043650793) translate(0 113.71374834656083)"/><use xlink:href="#u" transform="matrix(1,0,0,1,72,-1020.6307043650793) translate(69.34461805555554 113.71374834656083)"/><use xlink:href="#v" transform="matrix(1,0,0,1,72,-1020.6307043650793) translate(374.46093749999994 113.71374834656083)"/><use xlink:href="#n" transform="matrix(1,0,0,1,72,-1020.6307043650793) translate(0 144.13950892857142)"/><use xlink:href="#w" transform="matrix(1,0,0,1,72,-1020.6307043650793) translate(69.34461805555554 144.13950892857142)"/><use xlink:href="#x" transform="matrix(1,0,0,1,72,-1020.6307043650793) translate(249.640625 144.13950892857142)"/><path d="M59-1040H-83.12" stroke="#3a414a" fill="none"/><path d="M59.5-1039.5H59v-1h.5z" stroke="#3a414a" stroke-width=".05" fill="#3a414a"/><path d="M-97.88-1040l14.26-4.63v9.27z" stroke="#3a414a" fill="#3a414a"/><path d="M-240-754a6 6 0 0 1 6-6h408a6 6 0 0 1 6 6v218a6 6 0 0 1-6 6h-408a6 6 0 0 1-6-6z" stroke="#3a414a" fill="#fff"/><path d="M-240-717.07h420m-420 93.4h420" stroke="#3a414a" fill="none"/><use xlink:href="#y" transform="matrix(1,0,0,1,-232,-752) translate(107.32808641975309 17.988888888888887)"/><use xlink:href="#z" transform="matrix(1,0,0,1,-228,-709.0666666666667) translate(0 47.00086805555556)"/><use xlink:href="#A" transform="matrix(1,0,0,1,-228,-709.0666666666667) translate(208.03385416666669 47.00086805555556)"/><use xlink:href="#B" transform="matrix(1,0,0,1,-228,-615.663888888889) translate(0 47.00086805555556)"/><use xlink:href="#C" transform="matrix(1,0,0,1,-228,-615.663888888889) translate(89.61458333333336 47.00086805555556)"/><use xlink:href="#D" transform="matrix(1,0,0,1,-228,-615.663888888889) translate(156.29210069444446 47.00086805555556)"/><path d="M-600-427a6 6 0 0 1 6-6h408a6 6 0 0 1 6 6v218a6 6 0 0 1-6 6h-408a6 6 0 0 1-6-6z" stroke="#3a414a" fill="#fff"/><path d="M-600-390.07h420m-420 93.4h420" stroke="#3a414a" fill="none"/><use xlink:href="#E" transform="matrix(1,0,0,1,-592,-425) translate(81.20524691358027 17.988888888888887)"/><use xlink:href="#F" transform="matrix(1,0,0,1,-588,-382.06666666666666) translate(0 47.00086805555556)"/><use xlink:href="#G" transform="matrix(1,0,0,1,-588,-382.06666666666666) translate(166.42708333333334 47.00086805555556)"/><use xlink:href="#H" transform="matrix(1,0,0,1,-588,-288.6638888888889) translate(0 47.00086805555556)"/><use xlink:href="#I" transform="matrix(1,0,0,1,-588,-288.6638888888889) translate(69.34461805555556 47.00086805555556)"/><path d="M-140-427a6 6 0 0 1 6-6h408a6 6 0 0 1 6 6v218a6 6 0 0 1-6 6h-408a6 6 0 0 1-6-6z" stroke="#3a414a" fill="#fff"/><path d="M-140-390.07h420m-420 93.4h420" stroke="#3a414a" fill="none"/><use xlink:href="#J" transform="matrix(1,0,0,1,-132,-425) translate(77.49567901234569 17.988888888888887)"/><use xlink:href="#F" transform="matrix(1,0,0,1,-128,-382.06666666666666) translate(0 47.00086805555556)"/><use xlink:href="#G" transform="matrix(1,0,0,1,-128,-382.06666666666666) translate(166.42708333333334 47.00086805555556)"/><use xlink:href="#K" transform="matrix(1,0,0,1,-128,-288.6638888888889) translate(0 47.00086805555556)"/><use xlink:href="#L" transform="matrix(1,0,0,1,-128,-288.6638888888889) translate(13.86892361111111 47.00086805555556)"/><use xlink:href="#I" transform="matrix(1,0,0,1,-128,-288.6638888888889) translate(83.21354166666667 47.00086805555556)"/><path d="M320-427a6 6 0 0 1 6-6h408a6 6 0 0 1 6 6v218a6 6 0 0 1-6 6H326a6 6 0 0 1-6-6z" stroke="#3a414a" fill="#fff"/><path d="M320-390.07h420m-420 93.4h420" stroke="#3a414a" fill="none"/><use xlink:href="#M" transform="matrix(1,0,0,1,328,-425) translate(73.06913580246913 17.988888888888887)"/><use xlink:href="#F" transform="matrix(1,0,0,1,332,-382.06666666666666) translate(0 47.00086805555556)"/><use xlink:href="#G" transform="matrix(1,0,0,1,332,-382.06666666666666) translate(166.42708333333334 47.00086805555556)"/><use xlink:href="#H" transform="matrix(1,0,0,1,332,-288.6638888888889) translate(0 47.00086805555556)"/><use xlink:href="#I" transform="matrix(1,0,0,1,332,-288.6638888888889) translate(69.34461805555556 47.00086805555556)"/><path d="M-390-434v-41.5a6 6 0 0 1 6-6h348a6 6 0 0 0 6-6v-25.62" stroke="#3a414a" fill="none"/><path d="M-389.5-433.5h-1v-.5h1z" stroke="#3a414a" stroke-width=".05" fill="#3a414a"/><path d="M-30-527.88l4.64 14.26h-9.27z" stroke="#3a414a" fill="#3a414a"/><path d="M70-434v-41.5a6 6 0 0 0-6-6h-88a6 6 0 0 1-6-6v-25.62" stroke="#3a414a" fill="none"/><path d="M70.5-433.5h-1v-.5h1z" stroke="#3a414a" stroke-width=".05" fill="#3a414a"/><path d="M-30-527.88l4.64 14.26h-9.27z" stroke="#3a414a" fill="#3a414a"/><path d="M530-434v-41.5a6 6 0 0 0-6-6H-24a6 6 0 0 1-6-6v-19" stroke="#3a414a" fill="none"/><path d="M530.5-433.5h-1v-.5h1z" stroke="#3a414a" stroke-width=".05" fill="#3a414a"/><path d="M-30-528.52L-17.27-507h-25.46z" stroke="#3a414a" fill="#fff"/><path d="M1000-754a6 6 0 0 1 6-6h468a6 6 0 0 1 6 6v218a6 6 0 0 1-6 6h-468a6 6 0 0 1-6-6z" stroke="#000" fill="#fff"/><path d="M1000-717.1h480m-480 93.4h480" stroke="#000" fill="none"/><g><use xlink:href="#N" transform="matrix(1,0,0,1,1008,-752) translate(141.85199652777777 21.500868055555557)"/></g><g><use xlink:href="#O" transform="matrix(1,0,0,1,1012,-615.6944444444443) translate(0 47.00086805555556)"/><use xlink:href="#L" transform="matrix(1,0,0,1,1012,-615.6944444444443) translate(110.9513888888889 47.00086805555556)"/><use xlink:href="#P" transform="matrix(1,0,0,1,1012,-615.6944444444443) translate(180.29600694444446 47.00086805555556)"/></g><path d="M181-645h802.12" stroke="#3a414a" fill="none"/><path d="M181-644.5h-.5v-1h.5z" stroke="#3a414a" stroke-width=".05" fill="#3a414a"/><path d="M997.88-645l-14.26 4.63v-9.26z" stroke="#3a414a" fill="#3a414a"/><path d="M780-434a6 6 0 0 1 6-6h468a6 6 0 0 1 6 6v218a6 6 0 0 1-6 6H786a6 6 0 0 1-6-6z" stroke="#3a414a" fill="#fff"/><path d="M780-397.1h480m-480 93.4h480" stroke="#3a414a" fill="none"/><g><use xlink:href="#Q" transform="matrix(1,0,0,1,788,-432) translate(114.11414930555554 21.500868055555557)"/></g><g><use xlink:href="#H" transform="matrix(1,0,0,1,792,-295.69444444444446) translate(0 47.00086805555556)"/><use xlink:href="#R" transform="matrix(1,0,0,1,792,-295.69444444444446) translate(69.34461805555556 47.00086805555556)"/></g><path d="M1300-434a6 6 0 0 1 6-6h468a6 6 0 0 1 6 6v218a6 6 0 0 1-6 6h-468a6 6 0 0 1-6-6z" stroke="#3a414a" fill="#fff"/><path d="M1300-397.1h480m-480 93.4h480" stroke="#3a414a" fill="none"/><g><use xlink:href="#S" transform="matrix(1,0,0,1,1308,-432) translate(79.4418402777778 21.500868055555557)"/></g><g><use xlink:href="#H" transform="matrix(1,0,0,1,1312,-295.69444444444446) translate(0 47.00086805555556)"/><use xlink:href="#R" transform="matrix(1,0,0,1,1312,-295.69444444444446) translate(69.34461805555556 47.00086805555556)"/></g><path d="M1020-441v-38a6 6 0 0 1 6-6h208a6 6 0 0 0 6-6v-22.12" stroke="#3a414a" fill="none"/><path d="M1020.5-440.5h-1v-.5h1z" stroke="#3a414a" stroke-width=".05" fill="#3a414a"/><path d="M1240-527.88l4.63 14.26h-9.27z" stroke="#3a414a" fill="#3a414a"/><path d="M1540-441v-38a6 6 0 0 0-6-6h-288a6 6 0 0 1-6-6v-15.5" stroke="#3a414a" fill="none"/><path d="M1540.5-440.5h-1v-.5h1z" stroke="#3a414a" stroke-width=".05" fill="#3a414a"/><path d="M1240-528.52l12.73 21.52h-25.46z" stroke="#3a414a" fill="#fff"/><defs><path fill="#3a414a" d="M33 0v-248h34V0H33" id="T"/><path fill="#3a414a" d="M59-47c-2 24 18 29 38 22v24C64 9 27 4 27-40v-127H5v-23h24l9-43h21v43h35v23H59v120" id="U"/><path fill="#3a414a" d="M100-194c63 0 86 42 84 106H49c0 40 14 67 53 68 26 1 43-12 49-29l28 8c-11 28-37 45-77 45C44 4 14-33 15-96c1-61 26-98 85-98zm52 81c6-60-76-77-97-28-3 7-6 17-6 28h103" id="V"/><path fill="#3a414a" d="M210-169c-67 3-38 105-44 169h-31v-121c0-29-5-50-35-48C34-165 62-65 56 0H25l-1-190h30c1 10-1 24 2 32 10-44 99-50 107 0 11-21 27-35 58-36 85-2 47 119 55 194h-31v-121c0-29-5-49-35-48" id="W"/><g id="a"><use transform="matrix(0.06172839506172839,0,0,0.06172839506172839,0,0)" xlink:href="#T"/><use transform="matrix(0.06172839506172839,0,0,0.06172839506172839,6.172839506172839,0)" xlink:href="#U"/><use transform="matrix(0.06172839506172839,0,0,0.06172839506172839,12.345679012345679,0)" xlink:href="#V"/><use transform="matrix(0.06172839506172839,0,0,0.06172839506172839,24.691358024691358,0)" xlink:href="#W"/></g><path d="M539-647H152v-150h387v-389h149v389h387v150H688v385H539v-385" id="X"/><path d="M1026-301c0 225-197 321-448 321-165 0-290-23-375-69v-166c129 57 252 86 370 86 183 0 275-54 275-162 0-38-16-71-49-99s-108-63-226-106c-156-57-253-112-293-160s-61-105-61-171c2-338 524-340 789-217l-60 149c-121-48-228-72-319-72-157 0-236 44-236 133 0 41 17 74 51 98s111 57 232 101c141 51 234 101 280 151s70 111 70 183" id="Y"/><path d="M1020-150v138C933 9 849 20 768 20 527 20 406-95 406-324v-637H139v-94l267-49 77-287h105v293h438v137H588v637c0 130 64 195 192 195 62 0 142-7 240-21" id="Z"/><path d="M137-547c0-322 136-571 430-571 137 0 245 53 322 160h12c-24-215-7-376-12-598h182V0H924l-27-147h-8C814-36 706 20 567 20c-294 0-430-246-430-567zm463 416c241 0 288-157 289-416 0-151-23-259-69-323s-121-97-222-97c-181 0-272 141-272 422 0 276 91 414 274 414" id="aa"/><path d="M614-1126c85 0 127 46 127 139s-42 139-127 139-127-46-127-139 42-139 127-139zm0 876c85 0 127 46 127 139S699 29 614 29 487-18 487-111s42-139 127-139" id="ab"/><path d="M442-897c93-139 173-221 377-221 79 0 159 15 240 45l-49 166c-82-30-157-45-224-45-221 0-340 134-340 360V0H264v-1098h148l22 201h8" id="ac"/><path d="M739-1436c0 71-43 115-106 115-71 0-107-38-107-115 0-76 36-114 107-114s106 38 106 114zM541-954l-269-21v-123h451v955l352 20V0H197v-123l344-20v-811" id="ad"/><path d="M887 0v-707c0-173-79-260-238-260-205 0-307 133-307 398V0H160v-1098h147l27 148h10c69-112 181-168 336-168 259 0 389 134 389 401V0H887" id="ae"/><path d="M188-739c-1-248 156-381 410-379 57 0 107 7 150 20h378v113l-196 27c43 57 65 128 65 213 2 253-212 385-489 346-67 37-100 82-100 133 0 56 54 84 161 84h187c216-2 358 93 358 297 0 251-188 377-565 377-145 0-255-26-331-80S102 283 102 186c0-141 80-231 240-270-64-31-96-83-96-154 0-75 44-139 133-192-109-41-191-166-191-309zm406 221c149 0 223-77 223-230 0-159-75-239-225-239s-225 81-225 242c0 151 76 227 227 227zm346 649c0-146-78-149-248-149H504c-153 0-230 66-230 198 0 116 90 174 271 174 263 0 395-74 395-223" id="af"/><g id="b"><use transform="matrix(0.011284722222222222,0,0,0.011284722222222222,0,0)" xlink:href="#X"/><use transform="matrix(0.011284722222222222,0,0,0.011284722222222222,13.86892361111111,0)" xlink:href="#Y"/><use transform="matrix(0.011284722222222222,0,0,0.011284722222222222,27.73784722222222,0)" xlink:href="#Z"/><use transform="matrix(0.011284722222222222,0,0,0.011284722222222222,41.60677083333333,0)" xlink:href="#aa"/><use transform="matrix(0.011284722222222222,0,0,0.011284722222222222,55.47569444444444,0)" xlink:href="#ab"/><use transform="matrix(0.011284722222222222,0,0,0.011284722222222222,69.34461805555556,0)" xlink:href="#ab"/><use transform="matrix(0.011284722222222222,0,0,0.011284722222222222,83.21354166666667,0)" xlink:href="#Y"/><use transform="matrix(0.011284722222222222,0,0,0.011284722222222222,97.08246527777777,0)" xlink:href="#Z"/><use transform="matrix(0.011284722222222222,0,0,0.011284722222222222,110.95138888888891,0)" xlink:href="#ac"/><use transform="matrix(0.011284722222222222,0,0,0.011284722222222222,124.82031250000001,0)" xlink:href="#ad"/><use transform="matrix(0.011284722222222222,0,0,0.011284722222222222,138.68923611111111,0)" xlink:href="#ae"/><use transform="matrix(0.011284722222222222,0,0,0.011284722222222222,152.55815972222223,0)" xlink:href="#af"/></g><path d="M631-1118c283 0 470 204 465 491v113H322c5 250 120 375 344 375 130 0 253-25 370-76v160C925-5 804 20 672 20c-329 0-539-224-539-561 0-331 182-577 498-577zM326-662h573c0-203-91-305-272-305-183 0-284 102-301 305" id="ag"/><path d="M977 0v-707c0-97-9-165-27-203s-47-57-88-57c-58 0-100 28-126 83s-40 148-40 278V0H535v-707c0-173-42-260-125-260-56 0-96 26-120 79s-36 160-36 319V0H92v-1098h127l27 148h10c45-112 112-168 201-168 109 0 180 61 213 182h6c51-121 124-182 219-182 85 0 147 30 186 92s58 165 58 309V0H977" id="ah"/><path d="M1243 324H-16V184h1259v140" id="ai"/><path d="M621-1126c85 0 127 46 127 139s-42 139-127 139-127-46-127-139 42-139 127-139zm88 888l14 23C689-84 630 76 547 264H410c41-170 75-337 100-502h199" id="aj"/><g id="c"><use transform="matrix(0.011284722222222222,0,0,0.011284722222222222,0,0)" xlink:href="#ad"/><use transform="matrix(0.011284722222222222,0,0,0.011284722222222222,13.86892361111111,0)" xlink:href="#Z"/><use transform="matrix(0.011284722222222222,0,0,0.011284722222222222,27.73784722222222,0)" xlink:href="#ag"/><use transform="matrix(0.011284722222222222,0,0,0.011284722222222222,41.60677083333333,0)" xlink:href="#ah"/><use transform="matrix(0.011284722222222222,0,0,0.011284722222222222,55.47569444444444,0)" xlink:href="#ai"/><use transform="matrix(0.011284722222222222,0,0,0.011284722222222222,69.34461805555556,0)" xlink:href="#aj"/></g><g id="d"><use transform="matrix(0.011284722222222222,0,0,0.011284722222222222,0,0)" xlink:href="#X"/><use transform="matrix(0.011284722222222222,0,0,0.011284722222222222,13.86892361111111,0)" xlink:href="#ad"/><use transform="matrix(0.011284722222222222,0,0,0.011284722222222222,27.73784722222222,0)" xlink:href="#ae"/><use transform="matrix(0.011284722222222222,0,0,0.011284722222222222,41.60677083333333,0)" xlink:href="#Z"/></g><path d="M137-547c0-322 136-571 430-571 138 0 245 56 322 168h8l27-148h147V492H889c5-232-12-415 12-639h-12C814-36 706 20 567 20c-294 0-430-246-430-567zm463 416c241 0 288-157 289-416 0-151-23-259-69-323s-121-97-222-97c-181 0-272 141-272 422 0 276 91 414 274 414" id="ak"/><path d="M578-131c239 0 309-137 309-397v-570h182V0H922l-27-147h-10C815-36 704 20 551 20c-261 0-391-134-391-401v-717h182v707c0 173 79 260 236 260" id="al"/><path d="M596-1118c288 2 430 92 430 366V0H895l-37-152h-8C752-34 680 17 483 20 272 23 135-98 135-307c0-221 170-337 510-348l203-7c15-197-55-305-244-305-98 0-207 27-328 82l-63-137c131-64 258-96 383-96zm-72 991c194 0 325-116 322-311v-99c-251 15-522-6-522 232 0 119 67 178 200 178" id="am"/><path d="M82-1098h188l262 654c55 137 84 233 89 290h6c15-75 45-172 90-292l239-652h189L670 143c-45 116-99 201-156 261-87 92-259 104-414 71V330c92 17 226 18 286-29 67-53 115-195 153-291" id="an"/><g id="e"><use transform="matrix(0.011284722222222222,0,0,0.011284722222222222,0,0)" xlink:href="#ak"/><use transform="matrix(0.011284722222222222,0,0,0.011284722222222222,13.86892361111111,0)" xlink:href="#al"/><use transform="matrix(0.011284722222222222,0,0,0.011284722222222222,27.73784722222222,0)" xlink:href="#am"/><use transform="matrix(0.011284722222222222,0,0,0.011284722222222222,41.60677083333333,0)" xlink:href="#ae"/><use transform="matrix(0.011284722222222222,0,0,0.011284722222222222,55.47569444444444,0)" xlink:href="#Z"/><use transform="matrix(0.011284722222222222,0,0,0.011284722222222222,69.34461805555556,0)" xlink:href="#ad"/><use transform="matrix(0.011284722222222222,0,0,0.011284722222222222,83.21354166666667,0)" xlink:href="#Z"/><use transform="matrix(0.011284722222222222,0,0,0.011284722222222222,97.08246527777777,0)" xlink:href="#an"/><use transform="matrix(0.011284722222222222,0,0,0.011284722222222222,110.95138888888891,0)" xlink:href="#ai"/><use transform="matrix(0.011284722222222222,0,0,0.011284722222222222,124.82031250000001,0)" xlink:href="#aj"/></g><path d="M866-1417c-164 2-207 56-211 215v104h389v137H655V0H473v-961H156v-110l317-33c-17-319 78-463 389-463 86 0 170 12 252 35l-41 143c-69-19-138-28-207-28" id="ao"/><path d="M532-1413l-268-21v-122h451v1413l352 20V0H188v-123l344-20v-1270" id="ap"/><path d="M1112-551c0 331-186 571-502 571-301 0-495-251-495-571 0-330 184-567 501-567 302 0 496 249 496 567zM614-131c207 0 310-140 310-420 0-277-104-416-312-416-206 0-309 139-309 416 0 280 104 420 311 420" id="aq"/><g id="f"><use transform="matrix(0.011284722222222222,0,0,0.011284722222222222,0,0)" xlink:href="#X"/><use transform="matrix(0.011284722222222222,0,0,0.011284722222222222,13.86892361111111,0)" xlink:href="#ao"/><use transform="matrix(0.011284722222222222,0,0,0.011284722222222222,27.73784722222222,0)" xlink:href="#ap"/><use transform="matrix(0.011284722222222222,0,0,0.011284722222222222,41.60677083333333,0)" xlink:href="#aq"/><use transform="matrix(0.011284722222222222,0,0,0.011284722222222222,55.47569444444444,0)" xlink:href="#am"/><use transform="matrix(0.011284722222222222,0,0,0.011284722222222222,69.34461805555556,0)" xlink:href="#Z"/></g><path d="M1092-551c0 322-136 571-430 571-138 0-245-53-322-159h-12c24 220 7 402 12 631H158v-1590h147l27 148h8c73-112 181-168 322-168 294 0 430 246 430 567zM629-967c-241 0-288 156-289 416 0 151 24 259 70 323s120 97 221 97c181 0 272-141 272-422 0-276-91-414-274-414" id="ar"/><path d="M172-543c0-365 197-575 553-575 119 0 231 20 336 59l-62 158c-100-38-189-57-268-57-247 0-371 138-371 413 0 271 120 406 361 406 105 0 212-21 321-62v160C953 0 843 20 713 20c-347 1-541-210-541-563" id="as"/><g id="g"><use transform="matrix(0.011284722222222222,0,0,0.011284722222222222,0,0)" xlink:href="#ar"/><use transform="matrix(0.011284722222222222,0,0,0.011284722222222222,13.86892361111111,0)" xlink:href="#ac"/><use transform="matrix(0.011284722222222222,0,0,0.011284722222222222,27.73784722222222,0)" xlink:href="#ad"/><use transform="matrix(0.011284722222222222,0,0,0.011284722222222222,41.60677083333333,0)" xlink:href="#as"/><use transform="matrix(0.011284722222222222,0,0,0.011284722222222222,55.47569444444444,0)" xlink:href="#ag"/><use transform="matrix(0.011284722222222222,0,0,0.011284722222222222,69.34461805555556,0)" xlink:href="#ai"/><use transform="matrix(0.011284722222222222,0,0,0.011284722222222222,83.21354166666667,0)" xlink:href="#aj"/></g><path fill="#3a414a" d="M140-251c81 0 123 46 123 126C263-46 219 4 140 4 59 4 17-45 17-125s42-126 123-126zm0 227c63 0 89-41 89-101s-29-99-89-99c-61 0-89 39-89 99S79-25 140-24" id="at"/><path fill="#3a414a" d="M114-163C36-179 61-72 57 0H25l-1-190h30c1 12-1 29 2 39 6-27 23-49 58-41v29" id="au"/><path fill="#3a414a" d="M85-194c31 0 48 13 60 33l-1-100h32l1 261h-30c-2-10 0-23-3-31C134-8 116 4 85 4 32 4 16-35 15-94c0-66 23-100 70-100zm9 24c-40 0-46 34-46 75 0 40 6 74 45 74 42 0 51-32 51-76 0-42-9-74-50-73" id="av"/><g id="h"><use transform="matrix(0.06172839506172839,0,0,0.06172839506172839,0,0)" xlink:href="#at"/><use transform="matrix(0.06172839506172839,0,0,0.06172839506172839,17.28395061728395,0)" xlink:href="#au"/><use transform="matrix(0.06172839506172839,0,0,0.06172839506172839,24.629629629629626,0)" xlink:href="#av"/><use transform="matrix(0.06172839506172839,0,0,0.06172839506172839,36.9753086419753,0)" xlink:href="#V"/><use transform="matrix(0.06172839506172839,0,0,0.06172839506172839,49.32098765432098,0)" xlink:href="#au"/></g><path d="M285-465v-168h659v168H285" id="aw"/><path d="M498 0L82-1098h188l240 652c57 154 90 262 100 325h6c67-256 244-708 340-977h189L729 0H498" id="ax"/><path d="M1075-221L152-672v-102l923-451v160L360-723l715 342v160" id="ay"/><path d="M1001 0H225v-123l295-20v-1176l-295-20v-123h776v123l-294 20v1176l294 20V0" id="az"/><path d="M152-381l714-342-714-342v-160l923 451v102L152-221v-160" id="aA"/><g id="i"><use transform="matrix(0.012369791666666666,0,0,0.012369791666666666,0,0)" xlink:href="#aw"/><use transform="matrix(0.012369791666666666,0,0,0.012369791666666666,15.202473958333332,0)" xlink:href="#Y"/><use transform="matrix(0.012369791666666666,0,0,0.012369791666666666,30.404947916666664,0)" xlink:href="#Z"/><use transform="matrix(0.012369791666666666,0,0,0.012369791666666666,45.607421875,0)" xlink:href="#aa"/><use transform="matrix(0.012369791666666666,0,0,0.012369791666666666,60.80989583333333,0)" xlink:href="#ab"/><use transform="matrix(0.012369791666666666,0,0,0.012369791666666666,76.01236979166666,0)" xlink:href="#ab"/><use transform="matrix(0.012369791666666666,0,0,0.012369791666666666,91.21484374999999,0)" xlink:href="#ax"/><use transform="matrix(0.012369791666666666,0,0,0.012369791666666666,106.4173177083333,0)" xlink:href="#ag"/><use transform="matrix(0.012369791666666666,0,0,0.012369791666666666,121.61979166666664,0)" xlink:href="#as"/><use transform="matrix(0.012369791666666666,0,0,0.012369791666666666,136.82226562499997,0)" xlink:href="#Z"/><use transform="matrix(0.012369791666666666,0,0,0.012369791666666666,152.02473958333331,0)" xlink:href="#aq"/><use transform="matrix(0.012369791666666666,0,0,0.012369791666666666,167.22721354166666,0)" xlink:href="#ac"/><use transform="matrix(0.012369791666666666,0,0,0.012369791666666666,182.4296875,0)" xlink:href="#ay"/><use transform="matrix(0.012369791666666666,0,0,0.012369791666666666,197.63216145833334,0)" xlink:href="#az"/><use transform="matrix(0.012369791666666666,0,0,0.012369791666666666,212.8346354166667,0)" xlink:href="#Z"/><use transform="matrix(0.012369791666666666,0,0,0.012369791666666666,228.03710937500003,0)" xlink:href="#ag"/><use transform="matrix(0.012369791666666666,0,0,0.012369791666666666,243.23958333333337,0)" xlink:href="#ah"/><use transform="matrix(0.012369791666666666,0,0,0.012369791666666666,258.4420572916667,0)" xlink:href="#aA"/></g><g id="j"><use transform="matrix(0.012369791666666666,0,0,0.012369791666666666,0,0)" xlink:href="#ad"/><use transform="matrix(0.012369791666666666,0,0,0.012369791666666666,15.202473958333332,0)" xlink:href="#Z"/><use transform="matrix(0.012369791666666666,0,0,0.012369791666666666,30.404947916666664,0)" xlink:href="#ag"/><use transform="matrix(0.012369791666666666,0,0,0.012369791666666666,45.607421875,0)" xlink:href="#ah"/><use transform="matrix(0.012369791666666666,0,0,0.012369791666666666,60.80989583333333,0)" xlink:href="#Y"/><use transform="matrix(0.012369791666666666,0,0,0.012369791666666666,76.01236979166666,0)" xlink:href="#ai"/><use transform="matrix(0.012369791666666666,0,0,0.012369791666666666,91.21484374999999,0)" xlink:href="#aj"/></g><g id="k"><use transform="matrix(0.012369791666666666,0,0,0.012369791666666666,0,0)" xlink:href="#aw"/><use transform="matrix(0.012369791666666666,0,0,0.012369791666666666,15.202473958333332,0)" xlink:href="#Y"/><use transform="matrix(0.012369791666666666,0,0,0.012369791666666666,30.404947916666664,0)" xlink:href="#Z"/><use transform="matrix(0.012369791666666666,0,0,0.012369791666666666,45.607421875,0)" xlink:href="#aa"/><use transform="matrix(0.012369791666666666,0,0,0.012369791666666666,60.80989583333333,0)" xlink:href="#ab"/><use transform="matrix(0.012369791666666666,0,0,0.012369791666666666,76.01236979166666,0)" xlink:href="#ab"/><use transform="matrix(0.012369791666666666,0,0,0.012369791666666666,91.21484374999999,0)" xlink:href="#Y"/><use transform="matrix(0.012369791666666666,0,0,0.012369791666666666,106.4173177083333,0)" xlink:href="#Z"/><use transform="matrix(0.012369791666666666,0,0,0.012369791666666666,121.61979166666664,0)" xlink:href="#ac"/><use transform="matrix(0.012369791666666666,0,0,0.012369791666666666,136.82226562499997,0)" xlink:href="#ad"/><use transform="matrix(0.012369791666666666,0,0,0.012369791666666666,152.02473958333331,0)" xlink:href="#ae"/><use transform="matrix(0.012369791666666666,0,0,0.012369791666666666,167.22721354166666,0)" xlink:href="#af"/></g><path d="M745 16c10 136 94 152 256 158v150c-292-4-438-102-438-293v-334c0-126-113-189-338-189v-155c225 0 338-63 338-189v-333c0-191 146-289 438-293v149c-96 1-163 14-200 39s-56 65-56 119v332c0 138-78 221-233 248v12c155 27 233 110 233 248V16" id="aB"/><path d="M522-1462l-41 528H326l-41-528h237zm422 0l-41 528H748l-41-528h237" id="aC"/><path d="M227 174c161-4 256-22 256-158v-331c0-138 78-221 234-248v-12c-156-27-234-110-234-248v-332c-9-135-95-154-256-158v-149c293 4 439 102 439 293v333c0 126 113 189 338 189v155c-225 0-338 63-338 189V31c0 191-146 289-439 293V174" id="aD"/><g id="l"><use transform="matrix(0.012369791666666666,0,0,0.012369791666666666,0,0)" xlink:href="#Y"/><use transform="matrix(0.012369791666666666,0,0,0.012369791666666666,15.202473958333332,0)" xlink:href="#Z"/><use transform="matrix(0.012369791666666666,0,0,0.012369791666666666,30.404947916666664,0)" xlink:href="#am"/><use transform="matrix(0.012369791666666666,0,0,0.012369791666666666,45.607421875,0)" xlink:href="#Z"/><use transform="matrix(0.012369791666666666,0,0,0.012369791666666666,60.80989583333333,0)" xlink:href="#al"/><use transform="matrix(0.012369791666666666,0,0,0.012369791666666666,76.01236979166666,0)" xlink:href="#Y"/><use transform="matrix(0.012369791666666666,0,0,0.012369791666666666,91.21484374999999,0)" xlink:href="#ai"/><use transform="matrix(0.012369791666666666,0,0,0.012369791666666666,106.4173177083333,0)" xlink:href="#aB"/><use transform="matrix(0.012369791666666666,0,0,0.012369791666666666,121.61979166666664,0)" xlink:href="#aC"/><use transform="matrix(0.012369791666666666,0,0,0.012369791666666666,136.82226562499997,0)" xlink:href="#aq"/><use transform="matrix(0.012369791666666666,0,0,0.012369791666666666,152.02473958333331,0)" xlink:href="#ar"/><use transform="matrix(0.012369791666666666,0,0,0.012369791666666666,167.22721354166666,0)" xlink:href="#ag"/><use transform="matrix(0.012369791666666666,0,0,0.012369791666666666,182.4296875,0)" xlink:href="#ae"/><use transform="matrix(0.012369791666666666,0,0,0.012369791666666666,197.63216145833334,0)" xlink:href="#aC"/><use transform="matrix(0.012369791666666666,0,0,0.012369791666666666,212.8346354166667,0)" xlink:href="#aD"/><use transform="matrix(0.012369791666666666,0,0,0.012369791666666666,228.03710937500003,0)" xlink:href="#aj"/></g><g id="n"><use transform="matrix(0.011284722222222219,0,0,0.011284722222222219,0,0)" xlink:href="#ax"/><use transform="matrix(0.011284722222222219,0,0,0.011284722222222219,13.868923611111107,0)" xlink:href="#aq"/><use transform="matrix(0.011284722222222219,0,0,0.011284722222222219,27.737847222222214,0)" xlink:href="#ad"/><use transform="matrix(0.011284722222222219,0,0,0.011284722222222219,41.60677083333332,0)" xlink:href="#aa"/></g><path d="M1004 0L860-453H369L223 0H33l483-1468h195L1196 0h-192zM807-618c-63-210-144-435-195-650-51 232-127 431-190 650h385" id="aE"/><path d="M739-1462h193c-299 251-449 548-449 893 0 347 149 645 447 893H739C443 89 295-208 295-567c0-355 148-653 444-895" id="aF"/><g id="o"><use transform="matrix(0.011284722222222219,0,0,0.011284722222222219,0,0)" xlink:href="#aE"/><use transform="matrix(0.011284722222222219,0,0,0.011284722222222219,13.868923611111107,0)" xlink:href="#aa"/><use transform="matrix(0.011284722222222219,0,0,0.011284722222222219,27.737847222222214,0)" xlink:href="#aa"/><use transform="matrix(0.011284722222222219,0,0,0.011284722222222219,41.60677083333332,0)" xlink:href="#az"/><use transform="matrix(0.011284722222222219,0,0,0.011284722222222219,55.47569444444443,0)" xlink:href="#Z"/><use transform="matrix(0.011284722222222219,0,0,0.011284722222222219,69.34461805555554,0)" xlink:href="#ag"/><use transform="matrix(0.011284722222222219,0,0,0.011284722222222219,83.21354166666666,0)" xlink:href="#ah"/><use transform="matrix(0.011284722222222219,0,0,0.011284722222222219,97.08246527777777,0)" xlink:href="#aF"/><use transform="matrix(0.011284722222222219,0,0,0.011284722222222219,110.9513888888889,0)" xlink:href="#as"/><use transform="matrix(0.011284722222222219,0,0,0.011284722222222219,124.8203125,0)" xlink:href="#aq"/><use transform="matrix(0.011284722222222219,0,0,0.011284722222222219,138.68923611111111,0)" xlink:href="#ae"/><use transform="matrix(0.011284722222222219,0,0,0.011284722222222219,152.55815972222223,0)" xlink:href="#Y"/><use transform="matrix(0.011284722222222219,0,0,0.011284722222222219,166.42708333333334,0)" xlink:href="#Z"/></g><path d="M567-1485c213 0 353 115 353 320 0 135-106 265-318 389l281 348c47-81 82-169 104-266h184c-35 156-95 290-178 403L1227 0h-217L879-166C763-42 626 20 467 20 219 20 61-134 61-381c0-87 21-164 63-229s121-131 236-199c-109-128-163-247-163-356 1-209 148-320 370-320zm-6 150c-112 0-187 60-186 170 0 79 44 168 133 268 89-53 151-99 184-139s49-84 49-133c1-100-77-166-180-166zM252-387c0 131 102 246 227 246 107 0 206-49 299-146L455-688c-135 82-203 182-203 301" id="aG"/><g id="p"><use transform="matrix(0.011284722222222219,0,0,0.011284722222222219,0,0)" xlink:href="#az"/><use transform="matrix(0.011284722222222219,0,0,0.011284722222222219,13.868923611111107,0)" xlink:href="#Z"/><use transform="matrix(0.011284722222222219,0,0,0.011284722222222219,27.737847222222214,0)" xlink:href="#ag"/><use transform="matrix(0.011284722222222219,0,0,0.011284722222222219,41.60677083333332,0)" xlink:href="#ah"/><use transform="matrix(0.011284722222222219,0,0,0.011284722222222219,55.47569444444443,0)" xlink:href="#aG"/></g><path d="M813 0c-67-308-137-613-199-926h-6C551-608 477-306 408 0H219L-4-1098h162c53 313 118 604 155 936h6c53-329 132-625 201-936h193c63 300 147 629 194 936h6c45-366 103-603 162-936h158L1008 0H813" id="aH"/><path d="M489 324H299C596 77 745-221 745-569c0-345-149-643-448-893h192c297 241 445 539 445 895 0 360-148 657-445 891" id="aI"/><g id="q"><use transform="matrix(0.011284722222222219,0,0,0.011284722222222219,0,0)" xlink:href="#ae"/><use transform="matrix(0.011284722222222219,0,0,0.011284722222222219,13.868923611111107,0)" xlink:href="#ag"/><use transform="matrix(0.011284722222222219,0,0,0.011284722222222219,27.737847222222214,0)" xlink:href="#aH"/><use transform="matrix(0.011284722222222219,0,0,0.011284722222222219,41.60677083333332,0)" xlink:href="#ai"/><use transform="matrix(0.011284722222222219,0,0,0.011284722222222219,55.47569444444443,0)" xlink:href="#ad"/><use transform="matrix(0.011284722222222219,0,0,0.011284722222222219,69.34461805555554,0)" xlink:href="#Z"/><use transform="matrix(0.011284722222222219,0,0,0.011284722222222219,83.21354166666666,0)" xlink:href="#ag"/><use transform="matrix(0.011284722222222219,0,0,0.011284722222222219,97.08246527777777,0)" xlink:href="#ah"/><use transform="matrix(0.011284722222222219,0,0,0.011284722222222219,110.9513888888889,0)" xlink:href="#aI"/><use transform="matrix(0.011284722222222219,0,0,0.011284722222222219,124.8203125,0)" xlink:href="#aj"/></g><g id="r"><use transform="matrix(0.011284722222222219,0,0,0.011284722222222219,0,0)" xlink:href="#ao"/><use transform="matrix(0.011284722222222219,0,0,0.011284722222222219,13.868923611111107,0)" xlink:href="#ap"/><use transform="matrix(0.011284722222222219,0,0,0.011284722222222219,27.737847222222214,0)" xlink:href="#aq"/><use transform="matrix(0.011284722222222219,0,0,0.011284722222222219,41.60677083333332,0)" xlink:href="#am"/><use transform="matrix(0.011284722222222219,0,0,0.011284722222222219,55.47569444444443,0)" xlink:href="#Z"/></g><path d="M707 0H520v-1298H102v-164h1022v164H707V0" id="aJ"/><path d="M1094-1034c0 310-213 470-541 465H362V0H176v-1462h404c343 0 514 143 514 428zM532-727c244-1 369-71 369-297 0-186-113-279-338-279H362v576h170" id="aK"/><g id="s"><use transform="matrix(0.011284722222222219,0,0,0.011284722222222219,0,0)" xlink:href="#aJ"/><use transform="matrix(0.011284722222222219,0,0,0.011284722222222219,13.868923611111107,0)" xlink:href="#aq"/><use transform="matrix(0.011284722222222219,0,0,0.011284722222222219,27.737847222222214,0)" xlink:href="#Z"/><use transform="matrix(0.011284722222222219,0,0,0.011284722222222219,41.60677083333332,0)" xlink:href="#am"/><use transform="matrix(0.011284722222222219,0,0,0.011284722222222219,55.47569444444443,0)" xlink:href="#ap"/><use transform="matrix(0.011284722222222219,0,0,0.011284722222222219,69.34461805555554,0)" xlink:href="#aK"/><use transform="matrix(0.011284722222222219,0,0,0.011284722222222219,83.21354166666666,0)" xlink:href="#ac"/><use transform="matrix(0.011284722222222219,0,0,0.011284722222222219,97.08246527777777,0)" xlink:href="#ad"/><use transform="matrix(0.011284722222222219,0,0,0.011284722222222219,110.9513888888889,0)" xlink:href="#as"/><use transform="matrix(0.011284722222222219,0,0,0.011284722222222219,124.8203125,0)" xlink:href="#ag"/><use transform="matrix(0.011284722222222219,0,0,0.011284722222222219,138.68923611111111,0)" xlink:href="#aF"/><use transform="matrix(0.011284722222222219,0,0,0.011284722222222219,152.55815972222223,0)" xlink:href="#aI"/></g><g id="t"><use transform="matrix(0.011284722222222219,0,0,0.011284722222222219,0,0)" xlink:href="#as"/><use transform="matrix(0.011284722222222219,0,0,0.011284722222222219,13.868923611111107,0)" xlink:href="#aq"/><use transform="matrix(0.011284722222222219,0,0,0.011284722222222219,27.737847222222214,0)" xlink:href="#ae"/><use transform="matrix(0.011284722222222219,0,0,0.011284722222222219,41.60677083333332,0)" xlink:href="#Y"/><use transform="matrix(0.011284722222222219,0,0,0.011284722222222219,55.47569444444443,0)" xlink:href="#Z"/><use transform="matrix(0.011284722222222219,0,0,0.011284722222222219,69.34461805555554,0)" xlink:href="#aj"/></g><path d="M715-1556l-43 393 397-111 27 193-379 28 246 326-179 96-176-358-157 358-185-96 242-326-375-28 29-193 391 111-43-393h205" id="aL"/><g id="u"><use transform="matrix(0.011284722222222219,0,0,0.011284722222222219,0,0)" xlink:href="#aK"/><use transform="matrix(0.011284722222222219,0,0,0.011284722222222219,13.868923611111107,0)" xlink:href="#am"/><use transform="matrix(0.011284722222222219,0,0,0.011284722222222219,27.737847222222214,0)" xlink:href="#an"/><use transform="matrix(0.011284722222222219,0,0,0.011284722222222219,41.60677083333332,0)" xlink:href="#aF"/><use transform="matrix(0.011284722222222219,0,0,0.011284722222222219,55.47569444444443,0)" xlink:href="#aK"/><use transform="matrix(0.011284722222222219,0,0,0.011284722222222219,69.34461805555554,0)" xlink:href="#am"/><use transform="matrix(0.011284722222222219,0,0,0.011284722222222219,83.21354166666666,0)" xlink:href="#an"/><use transform="matrix(0.011284722222222219,0,0,0.011284722222222219,97.08246527777777,0)" xlink:href="#ah"/><use transform="matrix(0.011284722222222219,0,0,0.011284722222222219,110.9513888888889,0)" xlink:href="#ag"/><use transform="matrix(0.011284722222222219,0,0,0.011284722222222219,124.8203125,0)" xlink:href="#ae"/><use transform="matrix(0.011284722222222219,0,0,0.011284722222222219,138.68923611111111,0)" xlink:href="#Z"/><use transform="matrix(0.011284722222222219,0,0,0.011284722222222219,152.55815972222223,0)" xlink:href="#aK"/><use transform="matrix(0.011284722222222219,0,0,0.011284722222222219,166.42708333333334,0)" xlink:href="#ac"/><use transform="matrix(0.011284722222222219,0,0,0.011284722222222219,180.29600694444446,0)" xlink:href="#aq"/><use transform="matrix(0.011284722222222219,0,0,0.011284722222222219,194.16493055555557,0)" xlink:href="#as"/><use transform="matrix(0.011284722222222219,0,0,0.011284722222222219,208.03385416666669,0)" xlink:href="#ag"/><use transform="matrix(0.011284722222222219,0,0,0.011284722222222219,221.9027777777778,0)" xlink:href="#Y"/><use transform="matrix(0.011284722222222219,0,0,0.011284722222222219,235.77170138888889,0)" xlink:href="#Y"/><use transform="matrix(0.011284722222222219,0,0,0.011284722222222219,249.64062500000003,0)" xlink:href="#aq"/><use transform="matrix(0.011284722222222219,0,0,0.011284722222222219,263.50954861111114,0)" xlink:href="#ac"/><use transform="matrix(0.011284722222222219,0,0,0.011284722222222219,277.37847222222223,0)" xlink:href="#aL"/></g><g id="v"><use transform="matrix(0.011284722222222219,0,0,0.011284722222222219,0,0)" xlink:href="#ar"/><use transform="matrix(0.011284722222222219,0,0,0.011284722222222219,13.868923611111107,0)" xlink:href="#am"/><use transform="matrix(0.011284722222222219,0,0,0.011284722222222219,27.737847222222214,0)" xlink:href="#an"/><use transform="matrix(0.011284722222222219,0,0,0.011284722222222219,41.60677083333332,0)" xlink:href="#ah"/><use transform="matrix(0.011284722222222219,0,0,0.011284722222222219,55.47569444444443,0)" xlink:href="#ag"/><use transform="matrix(0.011284722222222219,0,0,0.011284722222222219,69.34461805555554,0)" xlink:href="#ae"/><use transform="matrix(0.011284722222222219,0,0,0.011284722222222219,83.21354166666666,0)" xlink:href="#Z"/><use transform="matrix(0.011284722222222219,0,0,0.011284722222222219,97.08246527777777,0)" xlink:href="#aI"/><use transform="matrix(0.011284722222222219,0,0,0.011284722222222219,110.9513888888889,0)" xlink:href="#aj"/></g><path d="M616 20C261 20 84-232 84-735c0-500 178-750 534-750 171 0 301 65 392 195s137 316 137 557-46 426-138 557S786 20 616 20zm0-163c115 0 195-51 254-145 102-163 102-730-2-890-59-92-137-143-250-143-225 0-337 196-337 588 0 393 112 590 335 590" id="aM"/><g id="w"><use transform="matrix(0.011284722222222219,0,0,0.011284722222222219,0,0)" xlink:href="#aK"/><use transform="matrix(0.011284722222222219,0,0,0.011284722222222219,13.868923611111107,0)" xlink:href="#ac"/><use transform="matrix(0.011284722222222219,0,0,0.011284722222222219,27.737847222222214,0)" xlink:href="#ad"/><use transform="matrix(0.011284722222222219,0,0,0.011284722222222219,41.60677083333332,0)" xlink:href="#ae"/><use transform="matrix(0.011284722222222219,0,0,0.011284722222222219,55.47569444444443,0)" xlink:href="#Z"/><use transform="matrix(0.011284722222222219,0,0,0.011284722222222219,69.34461805555554,0)" xlink:href="#aM"/><use transform="matrix(0.011284722222222219,0,0,0.011284722222222219,83.21354166666666,0)" xlink:href="#ac"/><use transform="matrix(0.011284722222222219,0,0,0.011284722222222219,97.08246527777777,0)" xlink:href="#aa"/><use transform="matrix(0.011284722222222219,0,0,0.011284722222222219,110.9513888888889,0)" xlink:href="#ag"/><use transform="matrix(0.011284722222222219,0,0,0.011284722222222219,124.8203125,0)" xlink:href="#ac"/><use transform="matrix(0.011284722222222219,0,0,0.011284722222222219,138.68923611111111,0)" xlink:href="#aF"/><use transform="matrix(0.011284722222222219,0,0,0.011284722222222219,152.55815972222223,0)" xlink:href="#aI"/></g><g id="x"><use transform="matrix(0.011284722222222219,0,0,0.011284722222222219,0,0)" xlink:href="#as"/><use transform="matrix(0.011284722222222219,0,0,0.011284722222222219,13.868923611111107,0)" xlink:href="#aq"/><use transform="matrix(0.011284722222222219,0,0,0.011284722222222219,27.737847222222214,0)" xlink:href="#ae"/><use transform="matrix(0.011284722222222219,0,0,0.011284722222222219,41.60677083333332,0)" xlink:href="#Y"/><use transform="matrix(0.011284722222222219,0,0,0.011284722222222219,55.47569444444443,0)" xlink:href="#Z"/><use transform="matrix(0.011284722222222219,0,0,0.011284722222222219,69.34461805555554,0)" xlink:href="#aj"/></g><path d="M30-248c87 1 191-15 191 75 0 78-77 80-158 76V0H30v-248zm33 125c57 0 124 11 124-50 0-59-68-47-124-48v98" id="aN"/><path d="M141-36C126-15 110 5 73 4 37 3 15-17 15-53c-1-64 63-63 125-63 3-35-9-54-41-54-24 1-41 7-42 31l-33-3c5-37 33-52 76-52 45 0 72 20 72 64v82c-1 20 7 32 28 27v20c-31 9-61-2-59-35zM48-53c0 20 12 33 32 33 41-3 63-29 60-74-43 2-92-5-92 41" id="aO"/><path d="M179-190L93 31C79 59 56 82 12 73V49c39 6 53-20 64-50L1-190h34L92-34l54-156h33" id="aP"/><path d="M210-169c-67 3-38 105-44 169h-31v-121c0-29-5-50-35-48C34-165 62-65 56 0H25l-1-190h30c1 10-1 24 2 32 10-44 99-50 107 0 11-21 27-35 58-36 85-2 47 119 55 194h-31v-121c0-29-5-49-35-48" id="aQ"/><path d="M100-194c63 0 86 42 84 106H49c0 40 14 67 53 68 26 1 43-12 49-29l28 8c-11 28-37 45-77 45C44 4 14-33 15-96c1-61 26-98 85-98zm52 81c6-60-76-77-97-28-3 7-6 17-6 28h103" id="aR"/><path d="M117-194c89-4 53 116 60 194h-32v-121c0-31-8-49-39-48C34-167 62-67 57 0H25l-1-190h30c1 10-1 24 2 32 11-22 29-35 61-36" id="aS"/><path d="M59-47c-2 24 18 29 38 22v24C64 9 27 4 27-40v-127H5v-23h24l9-43h21v43h35v23H59v120" id="aT"/><path d="M114-163C36-179 61-72 57 0H25l-1-190h30c1 12-1 29 2 39 6-27 23-49 58-41v29" id="aU"/><path d="M100-194c62-1 85 37 85 99 1 63-27 99-86 99S16-35 15-95c0-66 28-99 85-99zM99-20c44 1 53-31 53-75 0-43-8-75-51-75s-53 32-53 75 10 74 51 75" id="aV"/><path d="M96-169c-40 0-48 33-48 73s9 75 48 75c24 0 41-14 43-38l32 2c-6 37-31 61-74 61-59 0-76-41-82-99-10-93 101-131 147-64 4 7 5 14 7 22l-32 3c-4-21-16-35-41-35" id="aW"/><path d="M135-143c-3-34-86-38-87 0 15 53 115 12 119 90S17 21 10-45l28-5c4 36 97 45 98 0-10-56-113-15-118-90-4-57 82-63 122-42 12 7 21 19 24 35" id="aX"/><g id="y"><use transform="matrix(0.06234567901234567,0,0,0.06234567901234567,0,0)" xlink:href="#aN"/><use transform="matrix(0.06234567901234567,0,0,0.06234567901234567,14.96296296296296,0)" xlink:href="#aO"/><use transform="matrix(0.06234567901234567,0,0,0.06234567901234567,27.432098765432094,0)" xlink:href="#aP"/><use transform="matrix(0.06234567901234567,0,0,0.06234567901234567,38.654320987654316,0)" xlink:href="#aQ"/><use transform="matrix(0.06234567901234567,0,0,0.06234567901234567,57.29567901234567,0)" xlink:href="#aR"/><use transform="matrix(0.06234567901234567,0,0,0.06234567901234567,69.7648148148148,0)" xlink:href="#aS"/><use transform="matrix(0.06234567901234567,0,0,0.06234567901234567,82.23395061728394,0)" xlink:href="#aT"/><use transform="matrix(0.06234567901234567,0,0,0.06234567901234567,88.46851851851851,0)" xlink:href="#aN"/><use transform="matrix(0.06234567901234567,0,0,0.06234567901234567,103.43148148148147,0)" xlink:href="#aU"/><use transform="matrix(0.06234567901234567,0,0,0.06234567901234567,110.8506172839506,0)" xlink:href="#aV"/><use transform="matrix(0.06234567901234567,0,0,0.06234567901234567,123.31975308641972,0)" xlink:href="#aW"/><use transform="matrix(0.06234567901234567,0,0,0.06234567901234567,134.54197530864195,0)" xlink:href="#aR"/><use transform="matrix(0.06234567901234567,0,0,0.06234567901234567,147.0111111111111,0)" xlink:href="#aX"/><use transform="matrix(0.06234567901234567,0,0,0.06234567901234567,158.23333333333332,0)" xlink:href="#aX"/><use transform="matrix(0.06234567901234567,0,0,0.06234567901234567,169.45555555555555,0)" xlink:href="#aV"/><use transform="matrix(0.06234567901234567,0,0,0.06234567901234567,181.9246913580247,0)" xlink:href="#aU"/></g><path d="M887 0v-707c0-173-79-260-238-260-205 0-307 133-307 398V0H160v-1556h182c-2 202 6 416-8 606h10c69-112 181-168 336-168 259 0 389 134 389 401V0H887" id="aY"/><path d="M1044 0H182v-125l660-836H215v-137h811v146L379-137h665V0" id="aZ"/><g id="z"><use transform="matrix(0.011284722222222222,0,0,0.011284722222222222,0,0)" xlink:href="#aE"/><use transform="matrix(0.011284722222222222,0,0,0.011284722222222222,13.86892361111111,0)" xlink:href="#al"/><use transform="matrix(0.011284722222222222,0,0,0.011284722222222222,27.73784722222222,0)" xlink:href="#Z"/><use transform="matrix(0.011284722222222222,0,0,0.011284722222222222,41.60677083333333,0)" xlink:href="#aY"/><use transform="matrix(0.011284722222222222,0,0,0.011284722222222222,55.47569444444444,0)" xlink:href="#aq"/><use transform="matrix(0.011284722222222222,0,0,0.011284722222222222,69.34461805555556,0)" xlink:href="#ac"/><use transform="matrix(0.011284722222222222,0,0,0.011284722222222222,83.21354166666667,0)" xlink:href="#ad"/><use transform="matrix(0.011284722222222222,0,0,0.011284722222222222,97.08246527777777,0)" xlink:href="#aZ"/><use transform="matrix(0.011284722222222222,0,0,0.011284722222222222,110.95138888888891,0)" xlink:href="#am"/><use transform="matrix(0.011284722222222222,0,0,0.011284722222222222,124.82031250000001,0)" xlink:href="#Z"/><use transform="matrix(0.011284722222222222,0,0,0.011284722222222222,138.68923611111111,0)" xlink:href="#ad"/><use transform="matrix(0.011284722222222222,0,0,0.011284722222222222,152.55815972222223,0)" xlink:href="#aq"/><use transform="matrix(0.011284722222222222,0,0,0.011284722222222222,166.42708333333334,0)" xlink:href="#ae"/><use transform="matrix(0.011284722222222222,0,0,0.011284722222222222,180.29600694444446,0)" xlink:href="#aL"/></g><g id="A"><use transform="matrix(0.011284722222222222,0,0,0.011284722222222222,0,0)" xlink:href="#ai"/><use transform="matrix(0.011284722222222222,0,0,0.011284722222222222,13.86892361111111,0)" xlink:href="#am"/><use transform="matrix(0.011284722222222222,0,0,0.011284722222222222,27.73784722222222,0)" xlink:href="#al"/><use transform="matrix(0.011284722222222222,0,0,0.011284722222222222,41.60677083333333,0)" xlink:href="#Z"/><use transform="matrix(0.011284722222222222,0,0,0.011284722222222222,55.47569444444444,0)" xlink:href="#aY"/><use transform="matrix(0.011284722222222222,0,0,0.011284722222222222,69.34461805555556,0)" xlink:href="#aj"/></g><g id="B"><use transform="matrix(0.009114583333333334,0,0,0.009114583333333334,0,0)" xlink:href="#ax"/><use transform="matrix(0.009114583333333334,0,0,0.009114583333333334,11.201822916666668,0)" xlink:href="#ad"/><use transform="matrix(0.009114583333333334,0,0,0.009114583333333334,22.403645833333336,0)" xlink:href="#ac"/><use transform="matrix(0.009114583333333334,0,0,0.009114583333333334,33.60546875,0)" xlink:href="#Z"/><use transform="matrix(0.009114583333333334,0,0,0.009114583333333334,44.80729166666667,0)" xlink:href="#al"/><use transform="matrix(0.009114583333333334,0,0,0.009114583333333334,56.00911458333334,0)" xlink:href="#am"/><use transform="matrix(0.009114583333333334,0,0,0.009114583333333334,67.21093750000001,0)" xlink:href="#ap"/></g><path d="M1092-551c0 322-136 571-430 571-138 0-245-53-322-159h-12L291 0H158v-1556h182c-2 221 6 379-8 602h8c71-109 179-164 322-164 294 0 430 246 430 567zM629-967c-241 0-289 146-289 416 0 151 24 259 70 323s120 97 221 97c181 0 272-141 272-422 0-276-91-414-274-414" id="ba"/><g id="C"><use transform="matrix(0.011284722222222222,0,0,0.011284722222222222,0,0)" xlink:href="#ba"/><use transform="matrix(0.011284722222222222,0,0,0.011284722222222222,13.86892361111111,0)" xlink:href="#aq"/><use transform="matrix(0.011284722222222222,0,0,0.011284722222222222,27.73784722222222,0)" xlink:href="#aq"/><use transform="matrix(0.011284722222222222,0,0,0.011284722222222222,41.60677083333333,0)" xlink:href="#ap"/></g><path d="M152-852v-149h923v149H152zm0 410v-150h923v150H152" id="bb"/><path d="M612 20c-153 0-268-65-347-194S147-489 147-733c0-501 155-752 465-752 155 0 271 64 350 193s119 316 119 559c0 502-156 753-469 753zm0-155c98 0 165-50 216-141 86-153 87-759 0-912-51-91-118-141-216-141-97 0-162 49-212 139-85 152-84 764 0 915 50 90 115 140 212 140" id="bc"/><g id="D"><use transform="matrix(0.009114583333333334,0,0,0.009114583333333334,0,0)" xlink:href="#ar"/><use transform="matrix(0.009114583333333334,0,0,0.009114583333333334,11.201822916666668,0)" xlink:href="#am"/><use transform="matrix(0.009114583333333334,0,0,0.009114583333333334,22.403645833333336,0)" xlink:href="#an"/><use transform="matrix(0.009114583333333334,0,0,0.009114583333333334,33.60546875,0)" xlink:href="#aF"/><use transform="matrix(0.009114583333333334,0,0,0.009114583333333334,44.80729166666667,0)" xlink:href="#aI"/><use transform="matrix(0.009114583333333334,0,0,0.009114583333333334,56.00911458333334,0)" xlink:href="#bb"/><use transform="matrix(0.009114583333333334,0,0,0.009114583333333334,67.21093750000001,0)" xlink:href="#bc"/><use transform="matrix(0.009114583333333334,0,0,0.009114583333333334,78.41276041666669,0)" xlink:href="#aj"/></g><path d="M30-248c118-7 216 8 213 122C240-48 200 0 122 0H30v-248zM63-27c89 8 146-16 146-99s-60-101-146-95v194" id="bd"/><path d="M115-194c53 0 69 39 70 98 0 66-23 100-70 100C84 3 66-7 56-30L54 0H23l1-261h32v101c10-23 28-34 59-34zm-8 174c40 0 45-34 45-75 0-40-5-75-45-74-42 0-51 32-51 76 0 43 10 73 51 73" id="be"/><path d="M24-231v-30h32v30H24zM24 0v-190h32V0H24" id="bf"/><g id="E"><use transform="matrix(0.06234567901234567,0,0,0.06234567901234567,0,0)" xlink:href="#bd"/><use transform="matrix(0.06234567901234567,0,0,0.06234567901234567,16.147530864197527,0)" xlink:href="#aR"/><use transform="matrix(0.06234567901234567,0,0,0.06234567901234567,28.61666666666666,0)" xlink:href="#be"/><use transform="matrix(0.06234567901234567,0,0,0.06234567901234567,41.08580246913579,0)" xlink:href="#bf"/><use transform="matrix(0.06234567901234567,0,0,0.06234567901234567,46.0111111111111,0)" xlink:href="#aT"/><use transform="matrix(0.06234567901234567,0,0,0.06234567901234567,52.24567901234566,0)" xlink:href="#aN"/><use transform="matrix(0.06234567901234567,0,0,0.06234567901234567,67.20864197530862,0)" xlink:href="#aO"/><use transform="matrix(0.06234567901234567,0,0,0.06234567901234567,79.67777777777775,0)" xlink:href="#aP"/><use transform="matrix(0.06234567901234567,0,0,0.06234567901234567,90.89999999999996,0)" xlink:href="#aQ"/><use transform="matrix(0.06234567901234567,0,0,0.06234567901234567,109.54135802469132,0)" xlink:href="#aR"/><use transform="matrix(0.06234567901234567,0,0,0.06234567901234567,122.01049382716045,0)" xlink:href="#aS"/><use transform="matrix(0.06234567901234567,0,0,0.06234567901234567,134.47962962962958,0)" xlink:href="#aT"/><use transform="matrix(0.06234567901234567,0,0,0.06234567901234567,140.71419753086414,0)" xlink:href="#aN"/><use transform="matrix(0.06234567901234567,0,0,0.06234567901234567,155.6771604938271,0)" xlink:href="#aU"/><use transform="matrix(0.06234567901234567,0,0,0.06234567901234567,163.09629629629623,0)" xlink:href="#aV"/><use transform="matrix(0.06234567901234567,0,0,0.06234567901234567,175.56543209876537,0)" xlink:href="#aW"/><use transform="matrix(0.06234567901234567,0,0,0.06234567901234567,186.7876543209876,0)" xlink:href="#aR"/><use transform="matrix(0.06234567901234567,0,0,0.06234567901234567,199.25679012345674,0)" xlink:href="#aX"/><use transform="matrix(0.06234567901234567,0,0,0.06234567901234567,210.47901234567897,0)" xlink:href="#aX"/><use transform="matrix(0.06234567901234567,0,0,0.06234567901234567,221.7012345679012,0)" xlink:href="#aV"/><use transform="matrix(0.06234567901234567,0,0,0.06234567901234567,234.17037037037034,0)" xlink:href="#aU"/></g><g id="F"><use transform="matrix(0.011284722222222222,0,0,0.011284722222222222,0,0)" xlink:href="#Y"/><use transform="matrix(0.011284722222222222,0,0,0.011284722222222222,13.86892361111111,0)" xlink:href="#Z"/><use transform="matrix(0.011284722222222222,0,0,0.011284722222222222,27.73784722222222,0)" xlink:href="#aa"/><use transform="matrix(0.011284722222222222,0,0,0.011284722222222222,41.60677083333333,0)" xlink:href="#ab"/><use transform="matrix(0.011284722222222222,0,0,0.011284722222222222,55.47569444444444,0)" xlink:href="#ab"/><use transform="matrix(0.011284722222222222,0,0,0.011284722222222222,69.34461805555556,0)" xlink:href="#Y"/><use transform="matrix(0.011284722222222222,0,0,0.011284722222222222,83.21354166666667,0)" xlink:href="#Z"/><use transform="matrix(0.011284722222222222,0,0,0.011284722222222222,97.08246527777777,0)" xlink:href="#ac"/><use transform="matrix(0.011284722222222222,0,0,0.011284722222222222,110.95138888888891,0)" xlink:href="#ad"/><use transform="matrix(0.011284722222222222,0,0,0.011284722222222222,124.82031250000001,0)" xlink:href="#ae"/><use transform="matrix(0.011284722222222222,0,0,0.011284722222222222,138.68923611111111,0)" xlink:href="#af"/></g><g id="G"><use transform="matrix(0.011284722222222222,0,0,0.011284722222222222,0,0)" xlink:href="#ai"/><use transform="matrix(0.011284722222222222,0,0,0.011284722222222222,13.86892361111111,0)" xlink:href="#Y"/><use transform="matrix(0.011284722222222222,0,0,0.011284722222222222,27.73784722222222,0)" xlink:href="#ag"/><use transform="matrix(0.011284722222222222,0,0,0.011284722222222222,41.60677083333333,0)" xlink:href="#as"/><use transform="matrix(0.011284722222222222,0,0,0.011284722222222222,55.47569444444444,0)" xlink:href="#al"/><use transform="matrix(0.011284722222222222,0,0,0.011284722222222222,69.34461805555556,0)" xlink:href="#ac"/><use transform="matrix(0.011284722222222222,0,0,0.011284722222222222,83.21354166666667,0)" xlink:href="#ad"/><use transform="matrix(0.011284722222222222,0,0,0.011284722222222222,97.08246527777777,0)" xlink:href="#Z"/><use transform="matrix(0.011284722222222222,0,0,0.011284722222222222,110.95138888888891,0)" xlink:href="#an"/><use transform="matrix(0.011284722222222222,0,0,0.011284722222222222,124.82031250000001,0)" xlink:href="#ai"/><use transform="matrix(0.011284722222222222,0,0,0.011284722222222222,138.68923611111111,0)" xlink:href="#as"/><use transform="matrix(0.011284722222222222,0,0,0.011284722222222222,152.55815972222223,0)" xlink:href="#aq"/><use transform="matrix(0.011284722222222222,0,0,0.011284722222222222,166.42708333333334,0)" xlink:href="#aa"/><use transform="matrix(0.011284722222222222,0,0,0.011284722222222222,180.29600694444446,0)" xlink:href="#ag"/><use transform="matrix(0.011284722222222222,0,0,0.011284722222222222,194.16493055555554,0)" xlink:href="#aj"/></g><g id="H"><use transform="matrix(0.011284722222222222,0,0,0.011284722222222222,0,0)" xlink:href="#ba"/><use transform="matrix(0.011284722222222222,0,0,0.011284722222222222,13.86892361111111,0)" xlink:href="#aq"/><use transform="matrix(0.011284722222222222,0,0,0.011284722222222222,27.73784722222222,0)" xlink:href="#aq"/><use transform="matrix(0.011284722222222222,0,0,0.011284722222222222,41.60677083333333,0)" xlink:href="#ap"/></g><g id="I"><use transform="matrix(0.011284722222222222,0,0,0.011284722222222222,0,0)" xlink:href="#ar"/><use transform="matrix(0.011284722222222222,0,0,0.011284722222222222,13.86892361111111,0)" xlink:href="#am"/><use transform="matrix(0.011284722222222222,0,0,0.011284722222222222,27.73784722222222,0)" xlink:href="#an"/><use transform="matrix(0.011284722222222222,0,0,0.011284722222222222,41.60677083333333,0)" xlink:href="#aF"/><use transform="matrix(0.011284722222222222,0,0,0.011284722222222222,55.47569444444444,0)" xlink:href="#aI"/><use transform="matrix(0.011284722222222222,0,0,0.011284722222222222,69.34461805555556,0)" xlink:href="#aj"/></g><path d="M212-179c-10-28-35-45-73-45-59 0-87 40-87 99 0 60 29 101 89 101 43 0 62-24 78-52l27 14C228-24 195 4 139 4 59 4 22-46 18-125c-6-104 99-153 187-111 19 9 31 26 39 46" id="bg"/><path d="M85-194c31 0 48 13 60 33l-1-100h32l1 261h-30c-2-10 0-23-3-31C134-8 116 4 85 4 32 4 16-35 15-94c0-66 23-100 70-100zm9 24c-40 0-46 34-46 75 0 40 6 74 45 74 42 0 51-32 51-76 0-42-9-74-50-73" id="bh"/><g id="J"><use transform="matrix(0.06234567901234567,0,0,0.06234567901234567,0,0)" xlink:href="#bg"/><use transform="matrix(0.06234567901234567,0,0,0.06234567901234567,16.147530864197527,0)" xlink:href="#aU"/><use transform="matrix(0.06234567901234567,0,0,0.06234567901234567,23.566666666666663,0)" xlink:href="#aR"/><use transform="matrix(0.06234567901234567,0,0,0.06234567901234567,36.035802469135795,0)" xlink:href="#bh"/><use transform="matrix(0.06234567901234567,0,0,0.06234567901234567,48.50493827160493,0)" xlink:href="#bf"/><use transform="matrix(0.06234567901234567,0,0,0.06234567901234567,53.430246913580234,0)" xlink:href="#aT"/><use transform="matrix(0.06234567901234567,0,0,0.06234567901234567,59.664814814814804,0)" xlink:href="#aN"/><use transform="matrix(0.06234567901234567,0,0,0.06234567901234567,74.62777777777777,0)" xlink:href="#aO"/><use transform="matrix(0.06234567901234567,0,0,0.06234567901234567,87.0969135802469,0)" xlink:href="#aP"/><use transform="matrix(0.06234567901234567,0,0,0.06234567901234567,98.31913580246912,0)" xlink:href="#aQ"/><use transform="matrix(0.06234567901234567,0,0,0.06234567901234567,116.96049382716048,0)" xlink:href="#aR"/><use transform="matrix(0.06234567901234567,0,0,0.06234567901234567,129.4296296296296,0)" xlink:href="#aS"/><use transform="matrix(0.06234567901234567,0,0,0.06234567901234567,141.89876543209874,0)" xlink:href="#aT"/><use transform="matrix(0.06234567901234567,0,0,0.06234567901234567,148.1333333333333,0)" xlink:href="#aN"/><use transform="matrix(0.06234567901234567,0,0,0.06234567901234567,163.09629629629626,0)" xlink:href="#aU"/><use transform="matrix(0.06234567901234567,0,0,0.06234567901234567,170.5154320987654,0)" xlink:href="#aV"/><use transform="matrix(0.06234567901234567,0,0,0.06234567901234567,182.98456790123453,0)" xlink:href="#aW"/><use transform="matrix(0.06234567901234567,0,0,0.06234567901234567,194.20679012345676,0)" xlink:href="#aR"/><use transform="matrix(0.06234567901234567,0,0,0.06234567901234567,206.6759259259259,0)" xlink:href="#aX"/><use transform="matrix(0.06234567901234567,0,0,0.06234567901234567,217.89814814814812,0)" xlink:href="#aX"/><use transform="matrix(0.06234567901234567,0,0,0.06234567901234567,229.12037037037035,0)" xlink:href="#aV"/><use transform="matrix(0.06234567901234567,0,0,0.06234567901234567,241.5895061728395,0)" xlink:href="#aU"/></g><g id="L"><use transform="matrix(0.011284722222222222,0,0,0.011284722222222222,0,0)" xlink:href="#ba"/><use transform="matrix(0.011284722222222222,0,0,0.011284722222222222,13.86892361111111,0)" xlink:href="#aq"/><use transform="matrix(0.011284722222222222,0,0,0.011284722222222222,27.73784722222222,0)" xlink:href="#aq"/><use transform="matrix(0.011284722222222222,0,0,0.011284722222222222,41.60677083333333,0)" xlink:href="#ap"/></g><path d="M115-194c55 1 70 41 70 98S169 2 115 4C84 4 66-9 55-30l1 105H24l-1-265h31l2 30c10-21 28-34 59-34zm-8 174c40 0 45-34 45-75s-6-73-45-74c-42 0-51 32-51 76 0 43 10 73 51 73" id="bi"/><path d="M24 0v-261h32V0H24" id="bj"/><g id="M"><use transform="matrix(0.06234567901234567,0,0,0.06234567901234567,0,0)" xlink:href="#aN"/><use transform="matrix(0.06234567901234567,0,0,0.06234567901234567,14.96296296296296,0)" xlink:href="#aO"/><use transform="matrix(0.06234567901234567,0,0,0.06234567901234567,27.432098765432094,0)" xlink:href="#aP"/><use transform="matrix(0.06234567901234567,0,0,0.06234567901234567,38.654320987654316,0)" xlink:href="#bi"/><use transform="matrix(0.06234567901234567,0,0,0.06234567901234567,51.12345679012345,0)" xlink:href="#aO"/><use transform="matrix(0.06234567901234567,0,0,0.06234567901234567,63.59259259259258,0)" xlink:href="#bj"/><use transform="matrix(0.06234567901234567,0,0,0.06234567901234567,68.51790123456789,0)" xlink:href="#aN"/><use transform="matrix(0.06234567901234567,0,0,0.06234567901234567,83.48086419753085,0)" xlink:href="#aO"/><use transform="matrix(0.06234567901234567,0,0,0.06234567901234567,95.94999999999999,0)" xlink:href="#aP"/><use transform="matrix(0.06234567901234567,0,0,0.06234567901234567,107.1722222222222,0)" xlink:href="#aQ"/><use transform="matrix(0.06234567901234567,0,0,0.06234567901234567,125.81358024691356,0)" xlink:href="#aR"/><use transform="matrix(0.06234567901234567,0,0,0.06234567901234567,138.28271604938269,0)" xlink:href="#aS"/><use transform="matrix(0.06234567901234567,0,0,0.06234567901234567,150.75185185185182,0)" xlink:href="#aT"/><use transform="matrix(0.06234567901234567,0,0,0.06234567901234567,156.98641975308638,0)" xlink:href="#aN"/><use transform="matrix(0.06234567901234567,0,0,0.06234567901234567,171.94938271604934,0)" xlink:href="#aU"/><use transform="matrix(0.06234567901234567,0,0,0.06234567901234567,179.36851851851847,0)" xlink:href="#aV"/><use transform="matrix(0.06234567901234567,0,0,0.06234567901234567,191.8376543209876,0)" xlink:href="#aW"/><use transform="matrix(0.06234567901234567,0,0,0.06234567901234567,203.05987654320984,0)" xlink:href="#aR"/><use transform="matrix(0.06234567901234567,0,0,0.06234567901234567,215.52901234567898,0)" xlink:href="#aX"/><use transform="matrix(0.06234567901234567,0,0,0.06234567901234567,226.7512345679012,0)" xlink:href="#aX"/><use transform="matrix(0.06234567901234567,0,0,0.06234567901234567,237.97345679012344,0)" xlink:href="#aV"/><use transform="matrix(0.06234567901234567,0,0,0.06234567901234567,250.44259259259258,0)" xlink:href="#aU"/></g><g id="N"><use transform="matrix(0.011284722222222222,0,0,0.011284722222222222,0,0)" xlink:href="#aE"/><use transform="matrix(0.011284722222222222,0,0,0.011284722222222222,13.86892361111111,0)" xlink:href="#al"/><use transform="matrix(0.011284722222222222,0,0,0.011284722222222222,27.73784722222222,0)" xlink:href="#Z"/><use transform="matrix(0.011284722222222222,0,0,0.011284722222222222,41.60677083333333,0)" xlink:href="#aY"/><use transform="matrix(0.011284722222222222,0,0,0.011284722222222222,55.47569444444444,0)" xlink:href="#ag"/><use transform="matrix(0.011284722222222222,0,0,0.011284722222222222,69.34461805555556,0)" xlink:href="#ae"/><use transform="matrix(0.011284722222222222,0,0,0.011284722222222222,83.21354166666667,0)" xlink:href="#Z"/><use transform="matrix(0.011284722222222222,0,0,0.011284722222222222,97.08246527777777,0)" xlink:href="#ad"/><use transform="matrix(0.011284722222222222,0,0,0.011284722222222222,110.95138888888891,0)" xlink:href="#as"/><use transform="matrix(0.011284722222222222,0,0,0.011284722222222222,124.82031250000001,0)" xlink:href="#am"/><use transform="matrix(0.011284722222222222,0,0,0.011284722222222222,138.68923611111111,0)" xlink:href="#Z"/><use transform="matrix(0.011284722222222222,0,0,0.011284722222222222,152.55815972222223,0)" xlink:href="#aq"/><use transform="matrix(0.011284722222222222,0,0,0.011284722222222222,166.42708333333334,0)" xlink:href="#ac"/></g><g id="O"><use transform="matrix(0.011284722222222222,0,0,0.011284722222222222,0,0)" xlink:href="#ax"/><use transform="matrix(0.011284722222222222,0,0,0.011284722222222222,13.86892361111111,0)" xlink:href="#ad"/><use transform="matrix(0.011284722222222222,0,0,0.011284722222222222,27.73784722222222,0)" xlink:href="#ac"/><use transform="matrix(0.011284722222222222,0,0,0.011284722222222222,41.60677083333333,0)" xlink:href="#Z"/><use transform="matrix(0.011284722222222222,0,0,0.011284722222222222,55.47569444444444,0)" xlink:href="#al"/><use transform="matrix(0.011284722222222222,0,0,0.011284722222222222,69.34461805555556,0)" xlink:href="#am"/><use transform="matrix(0.011284722222222222,0,0,0.011284722222222222,83.21354166666667,0)" xlink:href="#ap"/></g><g id="P"><use transform="matrix(0.011284722222222222,0,0,0.011284722222222222,0,0)" xlink:href="#am"/><use transform="matrix(0.011284722222222222,0,0,0.011284722222222222,13.86892361111111,0)" xlink:href="#al"/><use transform="matrix(0.011284722222222222,0,0,0.011284722222222222,27.73784722222222,0)" xlink:href="#Z"/><use transform="matrix(0.011284722222222222,0,0,0.011284722222222222,41.60677083333333,0)" xlink:href="#aY"/><use transform="matrix(0.011284722222222222,0,0,0.011284722222222222,55.47569444444444,0)" xlink:href="#ag"/><use transform="matrix(0.011284722222222222,0,0,0.011284722222222222,69.34461805555556,0)" xlink:href="#ae"/><use transform="matrix(0.011284722222222222,0,0,0.011284722222222222,83.21354166666667,0)" xlink:href="#Z"/><use transform="matrix(0.011284722222222222,0,0,0.011284722222222222,97.08246527777777,0)" xlink:href="#ad"/><use transform="matrix(0.011284722222222222,0,0,0.011284722222222222,110.95138888888891,0)" xlink:href="#as"/><use transform="matrix(0.011284722222222222,0,0,0.011284722222222222,124.82031250000001,0)" xlink:href="#am"/><use transform="matrix(0.011284722222222222,0,0,0.011284722222222222,138.68923611111111,0)" xlink:href="#Z"/><use transform="matrix(0.011284722222222222,0,0,0.011284722222222222,152.55815972222223,0)" xlink:href="#ag"/><use transform="matrix(0.011284722222222222,0,0,0.011284722222222222,166.42708333333334,0)" xlink:href="#aF"/><use transform="matrix(0.011284722222222222,0,0,0.011284722222222222,180.29600694444446,0)" xlink:href="#aI"/><use transform="matrix(0.011284722222222222,0,0,0.011284722222222222,194.16493055555554,0)" xlink:href="#bb"/><use transform="matrix(0.011284722222222222,0,0,0.011284722222222222,208.0338541666667,0)" xlink:href="#bc"/><use transform="matrix(0.011284722222222222,0,0,0.011284722222222222,221.90277777777783,0)" xlink:href="#aj"/></g><path d="M1087-391c0 281-226 411-532 411-177 0-315-23-414-69v-178c141 57 279 86 414 86 233 0 350-80 350-240 0-69-24-123-71-160s-142-82-285-133c-139-49-239-106-299-174s-90-156-90-264c2-252 211-371 481-371 153 0 291 26 416 78l-64 164c-129-52-249-78-360-78-195 0-293 70-293 209 0 68 22 123 66 164s134 85 270 133c164 58 273 119 328 181s83 143 83 241" id="bk"/><path d="M532 0L254-1280h-8c34 456 12 817 18 1280H113v-1462h247L608-270h6l250-1192h252V0H963c5-467-12-807 14-1278h-8L686 0H532" id="bl"/><g id="Q"><use transform="matrix(0.011284722222222222,0,0,0.011284722222222222,0,0)" xlink:href="#bk"/><use transform="matrix(0.011284722222222222,0,0,0.011284722222222222,13.86892361111111,0)" xlink:href="#bl"/><use transform="matrix(0.011284722222222222,0,0,0.011284722222222222,27.73784722222222,0)" xlink:href="#bk"/><use transform="matrix(0.011284722222222222,0,0,0.011284722222222222,41.60677083333333,0)" xlink:href="#ai"/><use transform="matrix(0.011284722222222222,0,0,0.011284722222222222,55.47569444444444,0)" xlink:href="#aE"/><use transform="matrix(0.011284722222222222,0,0,0.011284722222222222,69.34461805555556,0)" xlink:href="#al"/><use transform="matrix(0.011284722222222222,0,0,0.011284722222222222,83.21354166666667,0)" xlink:href="#Z"/><use transform="matrix(0.011284722222222222,0,0,0.011284722222222222,97.08246527777777,0)" xlink:href="#aY"/><use transform="matrix(0.011284722222222222,0,0,0.011284722222222222,110.95138888888891,0)" xlink:href="#ag"/><use transform="matrix(0.011284722222222222,0,0,0.011284722222222222,124.82031250000001,0)" xlink:href="#ae"/><use transform="matrix(0.011284722222222222,0,0,0.011284722222222222,138.68923611111111,0)" xlink:href="#Z"/><use transform="matrix(0.011284722222222222,0,0,0.011284722222222222,152.55815972222223,0)" xlink:href="#ad"/><use transform="matrix(0.011284722222222222,0,0,0.011284722222222222,166.42708333333334,0)" xlink:href="#as"/><use transform="matrix(0.011284722222222222,0,0,0.011284722222222222,180.29600694444446,0)" xlink:href="#am"/><use transform="matrix(0.011284722222222222,0,0,0.011284722222222222,194.16493055555554,0)" xlink:href="#Z"/><use transform="matrix(0.011284722222222222,0,0,0.011284722222222222,208.0338541666667,0)" xlink:href="#aq"/><use transform="matrix(0.011284722222222222,0,0,0.011284722222222222,221.90277777777783,0)" xlink:href="#ac"/></g><g id="R"><use transform="matrix(0.011284722222222222,0,0,0.011284722222222222,0,0)" xlink:href="#am"/><use transform="matrix(0.011284722222222222,0,0,0.011284722222222222,13.86892361111111,0)" xlink:href="#al"/><use transform="matrix(0.011284722222222222,0,0,0.011284722222222222,27.73784722222222,0)" xlink:href="#Z"/><use transform="matrix(0.011284722222222222,0,0,0.011284722222222222,41.60677083333333,0)" xlink:href="#aY"/><use transform="matrix(0.011284722222222222,0,0,0.011284722222222222,55.47569444444444,0)" xlink:href="#ag"/><use transform="matrix(0.011284722222222222,0,0,0.011284722222222222,69.34461805555556,0)" xlink:href="#ae"/><use transform="matrix(0.011284722222222222,0,0,0.011284722222222222,83.21354166666667,0)" xlink:href="#Z"/><use transform="matrix(0.011284722222222222,0,0,0.011284722222222222,97.08246527777777,0)" xlink:href="#ad"/><use transform="matrix(0.011284722222222222,0,0,0.011284722222222222,110.95138888888891,0)" xlink:href="#as"/><use transform="matrix(0.011284722222222222,0,0,0.011284722222222222,124.82031250000001,0)" xlink:href="#am"/><use transform="matrix(0.011284722222222222,0,0,0.011284722222222222,138.68923611111111,0)" xlink:href="#Z"/><use transform="matrix(0.011284722222222222,0,0,0.011284722222222222,152.55815972222223,0)" xlink:href="#ag"/><use transform="matrix(0.011284722222222222,0,0,0.011284722222222222,166.42708333333334,0)" xlink:href="#aF"/><use transform="matrix(0.011284722222222222,0,0,0.011284722222222222,180.29600694444446,0)" xlink:href="#aI"/><use transform="matrix(0.011284722222222222,0,0,0.011284722222222222,194.16493055555554,0)" xlink:href="#aj"/></g><path d="M1092 0H877L297-1210h-8c32 442 13 766 18 1210H135v-1462h213L926-258h6c-25-469-9-747-14-1204h174V0" id="bm"/><path d="M373-604V0H186v-1462h357c347 0 520 138 520 415 0 191-96 322-289 392L1171 0H952L602-604H373zm497-434c0-207-118-263-338-265H373v541h164c215-1 333-70 333-276" id="bn"/><g id="S"><use transform="matrix(0.011284722222222222,0,0,0.011284722222222222,0,0)" xlink:href="#bm"/><use transform="matrix(0.011284722222222222,0,0,0.011284722222222222,13.86892361111111,0)" xlink:href="#aM"/><use transform="matrix(0.011284722222222222,0,0,0.011284722222222222,27.73784722222222,0)" xlink:href="#ai"/><use transform="matrix(0.011284722222222222,0,0,0.011284722222222222,41.60677083333333,0)" xlink:href="#bn"/><use transform="matrix(0.011284722222222222,0,0,0.011284722222222222,55.47569444444444,0)" xlink:href="#aq"/><use transform="matrix(0.011284722222222222,0,0,0.011284722222222222,69.34461805555556,0)" xlink:href="#ba"/><use transform="matrix(0.011284722222222222,0,0,0.011284722222222222,83.21354166666667,0)" xlink:href="#aq"/><use transform="matrix(0.011284722222222222,0,0,0.011284722222222222,97.08246527777777,0)" xlink:href="#Z"/><use transform="matrix(0.011284722222222222,0,0,0.011284722222222222,110.95138888888891,0)" xlink:href="#ai"/><use transform="matrix(0.011284722222222222,0,0,0.011284722222222222,124.82031250000001,0)" xlink:href="#aE"/><use transform="matrix(0.011284722222222222,0,0,0.011284722222222222,138.68923611111111,0)" xlink:href="#al"/><use transform="matrix(0.011284722222222222,0,0,0.011284722222222222,152.55815972222223,0)" xlink:href="#Z"/><use transform="matrix(0.011284722222222222,0,0,0.011284722222222222,166.42708333333334,0)" xlink:href="#aY"/><use transform="matrix(0.011284722222222222,0,0,0.011284722222222222,180.29600694444446,0)" xlink:href="#ag"/><use transform="matrix(0.011284722222222222,0,0,0.011284722222222222,194.16493055555554,0)" xlink:href="#ae"/><use transform="matrix(0.011284722222222222,0,0,0.011284722222222222,208.0338541666667,0)" xlink:href="#Z"/><use transform="matrix(0.011284722222222222,0,0,0.011284722222222222,221.90277777777783,0)" xlink:href="#ad"/><use transform="matrix(0.011284722222222222,0,0,0.011284722222222222,235.7717013888889,0)" xlink:href="#as"/><use transform="matrix(0.011284722222222222,0,0,0.011284722222222222,249.64062500000003,0)" xlink:href="#am"/><use transform="matrix(0.011284722222222222,0,0,0.011284722222222222,263.50954861111114,0)" xlink:href="#Z"/><use transform="matrix(0.011284722222222222,0,0,0.011284722222222222,277.37847222222223,0)" xlink:href="#aq"/><use transform="matrix(0.011284722222222222,0,0,0.011284722222222222,291.2473958333333,0)" xlink:href="#ac"/></g></defs></g></svg>